Coordinates
version=1
nRows=43
nColumns=12
inDegrees=yes

Units are S.I. units (second, meters, Newtons, ...)
Angles are in degrees

endheader
time	SC_y	SC_z	SC_x	AC_y	AC_z	AC_x	GH_y	GH_z	GH_yy	EL_x	PS_y
       0.0              -40.16          15.79           67.5          51.94         -5.131          17.85         -54.92         -5.118          132.3          31.25           6.52
  0.001726              -40.16          15.79          67.49          51.94          -5.13          17.85          -54.9          -5.12          132.3          31.27          6.521
  0.003452              -40.17          15.79          67.49          51.94         -5.128          17.84         -54.89         -5.122          132.3          31.28          6.523
  0.005178              -40.17          15.78          67.49          51.93         -5.127          17.84         -54.88         -5.124          132.3           31.3          6.524
  0.006904              -40.17          15.78          67.48          51.93         -5.125          17.84         -54.87         -5.126          132.2          31.31          6.526
   0.00863              -40.18          15.78          67.48          51.93         -5.124          17.84         -54.85         -5.128          132.2          31.33          6.528
   0.01036              -40.18          15.78          67.47          51.92         -5.122          17.84         -54.84          -5.13          132.1          31.35          6.529
   0.01208              -40.18          15.78          67.47          51.92          -5.12          17.83         -54.82         -5.133          132.1          31.36          6.531
   0.01381              -40.19          15.77          67.46          51.91         -5.118          17.83          -54.8         -5.135          132.1          31.38          6.533
   0.01553              -40.19          15.77          67.46          51.91         -5.116          17.83         -54.78         -5.138          132.0          31.41          6.536
   0.01726               -40.2          15.77          67.45           51.9         -5.113          17.83         -54.76         -5.141          132.0          31.43          6.538
   0.01899               -40.2          15.76          67.45           51.9         -5.111          17.82         -54.74         -5.144          131.9          31.45           6.54
   0.02071              -40.21          15.76          67.44          51.89         -5.108          17.82         -54.71         -5.148          131.9          31.48          6.543
   0.02244              -40.22          15.76          67.43          51.89         -5.105          17.82         -54.69         -5.151          131.8          31.51          6.546
   0.02416              -40.22          15.75          67.42          51.88         -5.102          17.81         -54.66         -5.155          131.7          31.54          6.549
   0.02589              -40.23          15.75          67.42          51.87         -5.099          17.81         -54.63          -5.16          131.7          31.58          6.553
   0.02762              -40.24          15.74          67.41          51.87         -5.095          17.81          -54.6         -5.164          131.6          31.61          6.557
   0.02934              -40.25          15.74           67.4          51.86         -5.091           17.8         -54.56          -5.17          131.5          31.65          6.561
   0.03107              -40.26          15.73          67.38          51.85         -5.087           17.8         -54.52         -5.175          131.4           31.7          6.565
    0.0328              -40.27          15.73          67.37          51.84         -5.082          17.79         -54.48         -5.182          131.3          31.75           6.57
   0.03452              -40.28          15.72          67.36          51.83         -5.077          17.79         -54.43         -5.188          131.2           31.8          6.576
   0.03625              -40.29          15.71          67.34          51.81         -5.071          17.78         -54.38         -5.196          131.1          31.86          6.582
   0.03797              -40.31           15.7          67.33           51.8         -5.064          17.77         -54.32         -5.204          130.9          31.92          6.588
    0.0397              -40.32          15.69          67.31          51.79         -5.057          17.76         -54.26         -5.213          130.8          31.99          6.596
   0.04143              -40.34          15.68          67.29          51.77         -5.049          17.75         -54.18         -5.224          130.6          32.07          6.604
   0.04315              -40.36          15.67          67.27          51.75          -5.04          17.74          -54.1         -5.235          130.4          32.16          6.613
   0.04488              -40.38          15.66          67.24          51.73          -5.03          17.73         -54.02         -5.248          130.2          32.26          6.623
    0.0466               -40.4          15.65          67.21          51.71         -5.019          17.72         -53.92         -5.262          130.0          32.37          6.634
   0.04833              -40.43          15.63          67.18          51.68         -5.007           17.7          -53.8         -5.278          129.7           32.5          6.647
   0.05006              -40.46          15.61          67.15          51.65         -4.992          17.69         -53.67         -5.297          129.4          32.64          6.662
   0.05178               -40.5          15.59          67.11          51.62         -4.976          17.67         -53.53         -5.318          129.0          32.81          6.679
   0.05351              -40.54          15.57          67.06          51.58         -4.957          17.65         -53.36         -5.342          128.6          32.99          6.698
   0.05523              -40.59          15.54           67.0          51.53         -4.935          17.62         -53.17          -5.37          128.2          33.21           6.72
   0.05696              -40.64          15.51          66.94          51.48          -4.91          17.59         -52.94         -5.402          127.7          33.46          6.746
   0.05869              -40.71          15.47          66.87          51.42         -4.881          17.56         -52.68          -5.44          127.0          33.76          6.776
   0.06041              -40.78          15.43          66.78          51.34         -4.846          17.52         -52.36         -5.485          126.3           34.1          6.812
   0.06214              -40.87          15.37          66.67          51.26         -4.805          17.47         -51.99         -5.538          125.4          34.52          6.854
   0.06386              -40.98          15.31          66.55          51.15         -4.755          17.42         -51.55         -5.602          124.4          35.01          6.905
   0.06559              -41.11          15.23           66.4          51.03         -4.695          17.35         -51.02         -5.679          123.1          35.61          6.966
   0.06732              -41.27          15.14          66.21          50.87         -4.622          17.26         -50.36         -5.773          121.5          36.34          7.041
   0.06904              -41.47          15.03          65.99          50.68         -4.532          17.16         -49.55         -5.889          119.6          37.25          7.133
   0.07077              -41.72          14.88           65.7          50.45          -4.42          17.03         -48.54         -6.033          117.2          38.37          7.248
   0.07249              -42.03           14.7          65.35          50.15         -4.278          16.87         -47.27         -6.216          114.2          39.79          7.394
